<?xml version="1.0" encoding="UTF-8" standalone="no"?>
<!-- Created with Inkscape (http://www.inkscape.org/) -->

<svg
   xmlns:dc="http://purl.org/dc/elements/1.1/"
   xmlns:cc="http://creativecommons.org/ns#"
   xmlns:rdf="http://www.w3.org/1999/02/22-rdf-syntax-ns#"
   xmlns:svg="http://www.w3.org/2000/svg"
   xmlns="http://www.w3.org/2000/svg"
   xmlns:sodipodi="http://sodipodi.sourceforge.net/DTD/sodipodi-0.dtd"
   xmlns:inkscape="http://www.inkscape.org/namespaces/inkscape"
   width="213"
   height="59"
   viewBox="0 0 213 59.000001"
   id="svg2"
   version="1.1"
   inkscape:version="0.91 r13725"
   sodipodi:docname="timer.svg">
  <defs
     id="defs4">
    <linearGradient
       id="linearGradient7614">
      <stop
         style="stop-color:#ffffff;stop-opacity:1.0000000;"
         offset="0.0000000"
         id="stop7616" />
      <stop
         id="stop7649"
         offset="0.21590909"
         style="stop-color:#ffffff;stop-opacity:1.0000000;" />
      <stop
         id="stop7632"
         offset="0.50000000"
         style="stop-color:#838383;stop-opacity:1.0000000;" />
      <stop
         style="stop-color:#838383;stop-opacity:0;"
         offset="1"
         id="stop7618" />
    </linearGradient>
    <linearGradient
       id="linearGradient7608">
      <stop
         id="stop7610"
         offset="0.0000000"
         style="stop-color:#ffffff;stop-opacity:1.0000000;" />
      <stop
         style="stop-color:#e3e3e3;stop-opacity:1.0000000;"
         offset="0.46022728"
         id="stop7622" />
      <stop
         id="stop7624"
         offset="0.61970556"
         style="stop-color:#dadada;stop-opacity:0.67058824;" />
      <stop
         id="stop7612"
         offset="1.0000000"
         style="stop-color:#d1d1d1;stop-opacity:0.34285715;" />
    </linearGradient>
    <linearGradient
       id="linearGradient7586">
      <stop
         style="stop-color:#525252;stop-opacity:1.0000000;"
         offset="0.0000000"
         id="stop7588" />
      <stop
         style="stop-color:#000000;stop-opacity:1.0000000;"
         offset="1.0000000"
         id="stop7590" />
    </linearGradient>
    <linearGradient
       id="linearGradient11594">
      <stop
         id="stop11596"
         offset="0"
         style="stop-color:#ffffff;stop-opacity:1;" />
      <stop
         id="stop11598"
         offset="1.0000000"
         style="stop-color:#d1d1d1;stop-opacity:1.0000000;" />
    </linearGradient>
    <linearGradient
       id="linearGradient11520">
      <stop
         id="stop11522"
         offset="0.0000000"
         style="stop-color:#fbfbfb;stop-opacity:1.0000000;" />
      <stop
         id="stop11524"
         offset="1.0000000"
         style="stop-color:#dcdcdc;stop-opacity:1.0000000;" />
    </linearGradient>
  </defs>
  <sodipodi:namedview
     id="base"
     pagecolor="#ffffff"
     bordercolor="#666666"
     borderopacity="1.0"
     inkscape:pageopacity="0.0"
     inkscape:pageshadow="2"
     inkscape:zoom="5.6"
     inkscape:cx="221.60715"
     inkscape:cy="127.14286"
     inkscape:document-units="px"
     inkscape:current-layer="layer1"
     showgrid="false"
     inkscape:window-width="3840"
     inkscape:window-height="1980"
     inkscape:window-x="0"
     inkscape:window-y="24"
     inkscape:window-maximized="1"
     units="px" />
  <metadata
     id="metadata7">
    <rdf:RDF>
      <cc:Work
         rdf:about="">
        <dc:format>image/svg+xml</dc:format>
        <dc:type
           rdf:resource="http://purl.org/dc/dcmitype/StillImage" />
        <dc:title />
      </cc:Work>
    </rdf:RDF>
  </metadata>
  <g
     inkscape:label="Layer 1"
     inkscape:groupmode="layer"
     id="layer1"
     transform="translate(0,-993.36216)">
    <rect
       style="fill:none;fill-rule:evenodd;stroke:#000000;stroke-width:1.1959244px;stroke-linecap:butt;stroke-linejoin:miter;stroke-opacity:1"
       id="rect3508"
       width="201.94693"
       height="56.946934"
       x="0.5979622"
       y="994.81732"
       rx="7.1757793"
       ry="4.9828568" />
    <text
       xml:space="preserve"
       style="font-style:normal;font-weight:normal;font-size:15px;line-height:125%;font-family:sans-serif;letter-spacing:0px;word-spacing:0px;fill:#000000;fill-opacity:1;stroke:none;stroke-width:1px;stroke-linecap:butt;stroke-linejoin:miter;stroke-opacity:1"
       x="59.928574"
       y="1028.2908"
       id="text4310"
       sodipodi:linespacing="125%"><tspan
         sodipodi:role="line"
         id="tspan4312"
         x="59.928574"
         y="1028.2908">label</tspan></text>
    <circle
       style="fill:none;stroke:#000000;stroke-width:1;stroke-miterlimit:4;stroke-dasharray:none;stroke-opacity:1"
       id="out"
       cx="207.22789"
       cy="1023.7194"
       r="4.7696061" />
    <g
       id="g4329"
       transform="matrix(0.0728022,0,0,0.0728022,10.291213,1003.5874)">
      <g
         id="g4289">
        <path
           id="path4291"
           d="M 256,96 C 141.125,96 48,189.125 48,304 48,418.875 141.125,512 256,512 370.875,512 464,418.875 464,304 464,189.125 370.875,96 256,96 Z m 0,384 C 158.937,480 80,401.031 80,304 c 0,-97.063 78.938,-176 176,-176 97.031,0 176,78.938 176,176 0,97.031 -78.969,176 -176,176 z M 100.281,98.313 C 95.875,90.625 98.5,80.875 106.125,76.438 l 27.75,-16 C 141.5,56 151.313,58.625 155.719,66.313 l 17.219,29.813 c -20.063,8.063 -38.625,18.938 -55.375,32.125 L 100.281,98.313 Z M 394.438,128.25 C 377.719,115.062 359.126,104.187 339.063,96.125 l 17.22,-29.813 c 4.405,-7.688 14.188,-10.313 21.875,-5.875 l 27.688,16 c 7.656,4.438 10.281,14.188 5.875,21.875 L 394.438,128.25 Z M 208,48 208,16 c 0,-8.844 7.156,-16 16,-16 l 64,0 c 8.844,0 16,7.156 16,16 l 0,32 c 0,8.844 -7.156,16 -16,16 l 0,18.563 C 277.5,81.063 266.875,80 256,80 c -10.875,0 -21.5,1.063 -32,2.563 L 224,64 c -8.844,0 -16,-7.156 -16,-16 z m 48,112 32,144 c 0,17.688 -14.312,32 -32,32 -17.687,0 -32,-14.312 -32,-32 l 32,-144 z"
           inkscape:connector-curvature="0" />
      </g>
      <g
         id="g4293" />
      <g
         id="g4295" />
      <g
         id="g4297" />
      <g
         id="g4299" />
      <g
         id="g4301" />
      <g
         id="g4303" />
      <g
         id="g4305" />
      <g
         id="g4307" />
      <g
         id="g4309" />
      <g
         id="g4311" />
      <g
         id="g4313" />
      <g
         id="g4315" />
      <g
         id="g4317" />
      <g
         id="g4319" />
      <g
         id="g4321" />
    </g>
    <circle
       style="fill:none;stroke:#000000;stroke-width:1;stroke-miterlimit:4;stroke-dasharray:none;stroke-opacity:1"
       id="in"
       cx="-4.6423798"
       cy="1024.005"
       r="4.7696061" />
  </g>
</svg>
